<svg xmlns="http://www.w3.org/2000/svg"  viewBox="84.66 79.89 380.98 213.21"><path d="M94.28 79.91c-8.42.79-10.6 36.69-9.24 40.1 0 0 3.7-19.66 4.2-21.2.94-2.94 3.2-14.6 6-12.72 8.23 7.27-5.72 110.64-4.28 151.82l1.47 37.85 2.9-39.05s9.07-125.35 8.03-134.6c-.72-10.7-1-22.81-9.08-22.2Zm225.27 21.5c-2.3-1.37-4.84 24.84-5.42 31.67-.72.71-13.7 1.1-25.67.62l.83-28.38c-.71-.71-1.9 3.5-3.3 12.86l-2.14 15.4c-9.06 1.6-62.83-3-90.05-8.86-17.95-3.87-.08 7.99-1.5 5.3-2.14-2.14-6.77-4.54 2.52-1.87 18.17 4 67.46 11.52 88.48 11.33-3.68 37.02-7 121.62 13.06 96.27 2.14-2.86 7.77-14.95 7.06-15.66-7.81 10.27-12.76 18.33-15.82 6.2-5.11-20.28-1.79-80.95.43-86.6 7.67.32 25.56-.4 25.56-.4s-6.73 48.85-7.1 72.09l-.71 22.12c0 5 .71 5.71 3.57 2.14 3.57-4.28 1.77-3.74 2.48-23.72l.3-11.23c.7-3.57-.15-10.33 2.88-14.04 11.5-16.75 20.5-4.1 22.68 19.68 1.47 16.05.3 36.4-4.97 61.47-1.95 9.27-7.68 25.75-7.82 24.94-.63 2.01 6.43-4 13.32-30.48l2.6-14.54c.21-.45 29.1-5.02 48.48 11.37-10.3-11.2-28.17-16.82-47.98-13.75 0 0 1.88-12.86 1.62-35.14-.27-23.21-10.72-41.48-22.08-35.53-2.87 1.5-9.47 7.6-7.46 7.94.02 2.74 2.33-21.43 5.03-43.32l56.58-2.14 10.7-.71a396.43 396.43 0 0 0 38.54-2.85l13.56-.72a555.2 555.2 0 0 1 27.83-3.57 739.5 739.5 0 0 0-57.09.72l-39.25 1.42-30.69 1.43-20.38.6c-.4 3.5 2.1-16.56 1.32-32.06Z"/><path d="M174.7 125.68c-3.93-3.08-67.59 48.9-69.25 51.63 5.84 10.76 20.02 138.04 135.62 101.42 31.45-10.53 65.68-24.13 93-29.98.25-1.69.42-2.12.38-2.18-34.17 6.61-46.74 12.24-89.18 26.3-113.63 37.64-134.02-93.33-134.02-95.47 0 0 65.36-51.8 63.46-51.72Zm86.83 32.17c-7.42-1.13-10.03 9.9-5.73 12.8 9.65 5.12 13.91-11.83 5.73-12.8Zm2.48 4.5c1.07 3.55-1.49 6.7-4.56 6.67-5.34-3.17.5-12.53 4.56-6.67Z"/><path d="M185.17 182.83c-5-2.86-13.76 2.25-15.9 5.81-.01-.12-12.54 15.15-9.26 32.02 4.88 25.05 22.95-7.08 24.91-14.27 2.5-6.6 4.01-6.05 3.9-3.91-1.94 36.68 10.75 49.84 21.38 34.26 2.84-4.33 3.75-5.79 1.32-3.46.77-.54-.23 1.54-5.52 5.16-17.7 9.83-13.04-52.37-12.33-52.51.53-5.04-.65-1.67-2.8-1.67-1.42.71-2.85 0-5.7-1.43Zm-18.44 39.78c-7.57-6.7 8.9-46.66 19.15-34.07 1.75.8-11.26 37.01-19.15 34.07Zm90.52-38.35c-8.32 13.71-13.73 58.81 9.13 36.35 0 0 4.85-4.97 11.84-14.29 4.55-6.28-4.93 2.13-10.65 8.06-18.2 20-14.23-11.67-8.26-28.4 0-2.14 6.26-15.44-2.06-1.72Zm-20.17 8.76a316.04 316.04 0 0 1-6.49 14.77c-2.94 7.14-5.65 15.03-7.08 15.03-1.43 0-4.33-15.48-4.33-15.48l-2.53-12.72c-1.44-7.5-2.2-12.85-2.94-9.65-3.41 14.77 2.58 38.23 6.18 44.52 2.88 4.63 5 2.07 6.5 0 5.34-8.63 12.59-30.91 12.3-30.96 0 0 5-14.99 3.57-14.99.8-.96-2.05 1.73-5.18 9.48Zm141.11-19.86c-5-2.86-13.75 2.25-15.9 5.81 0-.12-12.53 15.15-9.25 32.02 4.87 25.05 22.94-7.08 24.9-14.27 2.5-6.6 4.01-6.05 3.9-3.91-1.94 36.68 10.75 49.84 21.38 34.25 2.85-4.32 2.98-5.1.56-2.77.77-.54.54.86-4.75 4.48-17.71 9.83-13.04-52.38-12.33-52.51.53-5.04-.66-1.67-2.8-1.67-1.42.71-2.85 0-5.7-1.43Zm-18.43 39.78c-7.57-6.7 8.9-46.66 19.15-34.07 1.74.8-11.27 37.01-19.15 34.07Z"/></svg>